<svg xmlns="http://www.w3.org/2000/svg" version="1.1" xmlns:xlink="http://www.w3.org/1999/xlink" xmlns:svgjs="http://svgjs.com/svgjs" width="1000" height="1000"><rect width="1000" height="1000" rx="500" ry="500" fill="#b2cdf3"></rect><g transform="matrix(6.4,0,0,6.4,100,99.99995880126949)"><svg xmlns="http://www.w3.org/2000/svg" version="1.1" xmlns:xlink="http://www.w3.org/1999/xlink" xmlns:svgjs="http://svgjs.com/svgjs" width="125" height="125"><svg viewBox="0 0 125 125" version="1.1" id="ptwman" sodipodi:docname="ptwman.svg" inkscape:version="1.3.2 (091e20ef0f, 2023-11-25, custom)" width="125" height="125" xmlns:inkscape="http://www.inkscape.org/namespaces/inkscape" xmlns:sodipodi="http://sodipodi.sourceforge.net/DTD/sodipodi-0.dtd" xmlns="http://www.w3.org/2000/svg" xmlns:svg="http://www.w3.org/2000/svg">
  <sodipodi:namedview id="namedview1" pagecolor="#b2cdf3" bordercolor="#000000" borderopacity="0.25" inkscape:showpageshadow="true" inkscape:pageopacity="0.0" inkscape:pagecheckerboard="0" inkscape:deskcolor="#d1d1d1" inkscape:document-units="mm" inkscape:zoom="1.1639162" inkscape:cx="111.26231" inkscape:cy="268.9197" inkscape:window-width="1898" inkscape:window-height="1178" inkscape:window-x="10" inkscape:window-y="10" inkscape:window-maximized="1" inkscape:current-layer="layer1" showborder="false" borderlayer="true" shape-rendering="auto"></sodipodi:namedview>
  <defs id="defs1"></defs>
  <g inkscape:label="Layer 1" inkscape:groupmode="layer" id="layer1" transform="translate(-64.51,-56.233719)">
    <path id="path5-8" style="fill:none;stroke:#000000;stroke-width:3.11502;stroke-linecap:round;stroke-linejoin:round" d="m 88.07678,122.33775 v 12.81533 c 0,0 8.3082,0.69257 8.31794,-6.35825 0.01,-7.05081 -8.31794,-6.45708 -8.31794,-6.45708 z m 77.86644,-7e-5 v 12.81533 c 0,0 -8.3082,0.69257 -8.31794,-6.35825 -0.01,-7.05081 8.31794,-6.45708 8.31794,-6.45708 z m -4.22365,0.34485 V 99.609838 L 131.50952,114.1512 v 55.18341 l 30.21005,-14.6769 v -19.61613 m -30.26543,34.2961 h -4.53726 m 4.53718,-54.99402 h -4.53726 m -4.35234,54.99385 h 4.53726 m -4.53718,-54.99402 h 4.53726 m -34.802834,8.38976 V 99.609668 l 30.210124,14.541362 v 55.18341 l -30.210124,-14.6769 v -19.40279 m 8.922704,-32.00138 c -0.70569,-2.4326 -1.08396,-5.004411 -1.08396,-7.664561 -1e-5,-15.16521 12.29383,-27.45905 27.45905,-27.45905 15.16521,0 27.45904,12.29384 27.45904,27.45905 0,2.30148 -0.28314,4.536841 -0.8165,6.673121 m -36.95156,-2.807678 c 5.62226,3.607548 11.83052,4.753368 19.44306,0 m -3.61902,-12.455379 c 2.59841,1.102574 5.19681,1.21808 7.79522,0 m -27.79522,4.25e-4 c 2.59841,1.102574 5.19681,1.21808 7.79522,0"></path>
  </g>
</svg></svg></g></svg>