<?xml version="1.0" encoding="UTF-8" standalone="no"?>
<svg
   viewBox="0 0 1285.7142 500.00006"
   version="1.1"
   id="ptwman"
   sodipodi:docname="ptwman.svg"
   inkscape:version="1.3.2 (091e20ef0f, 2023-11-25, custom)"
   width="1285.7142"
   height="500"
   inkscape:export-filename="ptwLogo.png"
   inkscape:export-xdpi="96"
   inkscape:export-ydpi="96"
   xmlns:inkscape="http://www.inkscape.org/namespaces/inkscape"
   xmlns:sodipodi="http://sodipodi.sourceforge.net/DTD/sodipodi-0.dtd"
   xmlns="http://www.w3.org/2000/svg"
   xmlns:svg="http://www.w3.org/2000/svg">
  <sodipodi:namedview
     id="namedview1"
     pagecolor="#b2cdf3"
     bordercolor="#000000"
     borderopacity="0.25"
     inkscape:showpageshadow="true"
     inkscape:pageopacity="0.0"
     inkscape:pagecheckerboard="0"
     inkscape:deskcolor="#d1d1d1"
     inkscape:document-units="mm"
     inkscape:zoom="0.60733704"
     inkscape:cx="537.59277"
     inkscape:cy="368.82322"
     inkscape:window-width="1898"
     inkscape:window-height="1178"
     inkscape:window-x="10"
     inkscape:window-y="10"
     inkscape:window-maximized="1"
     inkscape:current-layer="layer1"
     showborder="false"
     borderlayer="true"
     shape-rendering="auto"
     inkscape:export-bgcolor="#b2cdf3ff" />
  <defs
     id="defs1" />
  <g
     inkscape:label="Layer 1"
     inkscape:groupmode="layer"
     id="layer1"
     transform="translate(-70.297508,-66.572249)">
    <g
       id="g1"
       transform="matrix(2.4374891,0,0,2.3914981,-67.567049,-34.025058)">
      <path
         id="path5-8"
         style="fill:none;stroke:#000000;stroke-width:3.11502;stroke-linecap:round;stroke-linejoin:round"
         d="m 281.36429,122.33775 v 12.81533 c 0,0 8.3082,0.69257 8.31794,-6.35825 0.01,-7.05081 -8.31794,-6.45708 -8.31794,-6.45708 z m 77.86644,-7e-5 v 12.81533 c 0,0 -8.3082,0.69257 -8.31794,-6.35825 -0.01,-7.05081 8.31794,-6.45708 8.31794,-6.45708 z m -4.22365,0.34485 V 99.609838 L 324.79703,114.1512 v 55.18341 l 30.21005,-14.6769 v -19.61613 m -30.26543,34.2961 h -4.53726 m 4.53718,-54.99402 h -4.53726 m -4.35234,54.99385 h 4.53726 m -4.53718,-54.99402 h 4.53726 m -34.80283,8.38976 V 99.609668 l 30.21012,14.541362 v 55.18341 l -30.21012,-14.6769 v -19.40279 m 8.9227,-32.00138 c -0.70569,-2.4326 -1.08396,-5.004411 -1.08396,-7.664561 -1e-5,-15.16521 12.29383,-27.45905 27.45905,-27.45905 15.16521,0 27.45904,12.29384 27.45904,27.45905 0,2.30148 -0.28314,4.536841 -0.8165,6.673121 m -36.95156,-2.807678 c 5.62226,3.607548 11.83052,4.753368 19.44306,0 m -3.61902,-12.455379 c 2.59841,1.102574 5.19681,1.21808 7.79522,0 m -27.79522,4.25e-4 c 2.59841,1.102574 5.19681,1.21808 7.79522,0" />
      <text
         xml:space="preserve"
         style="font-size:40px;line-height:0px;font-family:Courgette;-inkscape-font-specification:Courgette;letter-spacing:0px;fill:#ffcf1a;stroke:#000000;stroke-width:0;stroke-linecap:round;stroke-linejoin:round;stroke-dasharray:none"
         x="85.942047"
         y="215.87445"
         id="text1"><tspan
           sodipodi:role="line"
           id="tspan1"
           x="85.942047"
           y="215.87445"
           style="font-size:40px;line-height:0px;fill:#000000;fill-opacity:1;stroke-width:0;stroke-dasharray:none">Primary Tutoring Warwick</tspan></text>
    </g>
  </g>
</svg>
