<?xml version="1.0" standalone="no"?>
<svg xmlns="http://www.w3.org/2000/svg" width="500" height="500"><defs><clipPath id="clip-path-dot-color"><circle cx="26" cy="152" r="7" transform="rotate(0,26,152)"/><path d="M 19 187v 14h 7a 7 7, 0, 0, 0, 0 -14" transform="rotate(180,26,194)"/><path d="M 19 271v 14h 7a 7 7, 0, 0, 0, 0 -14" transform="rotate(-90,26,278)"/><rect x="19" y="285" width="14" height="14" transform="rotate(0,26,292)"/><path d="M 19 299v 14h 7a 7 7, 0, 0, 0, 0 -14" transform="rotate(90,26,306)"/><path d="M 19 327v 14h 14v -7a 7 7, 0, 0, 0, -7 -7" transform="rotate(-90,26,334)"/><path d="M 19 341v 14h 14v -7a 7 7, 0, 0, 0, -7 -7" transform="rotate(180,26,348)"/><path d="M 33 131v 14h 7a 7 7, 0, 0, 0, 0 -14" transform="rotate(180,40,138)"/><path d="M 33 159v 14h 14v -7a 7 7, 0, 0, 0, -7 -7" transform="rotate(-90,40,166)"/><rect x="33" y="173" width="14" height="14" transform="rotate(0,40,180)"/><rect x="33" y="187" width="14" height="14" transform="rotate(0,40,194)"/><path d="M 33 215v 14h 14v -7a 7 7, 0, 0, 0, -7 -7" transform="rotate(-90,40,222)"/><rect x="33" y="229" width="14" height="14" transform="rotate(0,40,236)"/><rect x="33" y="243" width="14" height="14" transform="rotate(0,40,250)"/><path d="M 33 257v 14h 7a 7 7, 0, 0, 0, 0 -14" transform="rotate(90,40,264)"/><path d="M 33 313v 14h 7a 7 7, 0, 0, 0, 0 -14" transform="rotate(-90,40,320)"/><rect x="33" y="327" width="14" height="14" transform="rotate(0,40,334)"/><rect x="33" y="341" width="14" height="14" transform="rotate(0,40,348)"/><path d="M 33 355v 14h 7a 7 7, 0, 0, 0, 0 -14" transform="rotate(90,40,362)"/><path d="M 47 131v 14h 7a 7 7, 0, 0, 0, 0 -14" transform="rotate(0,54,138)"/><rect x="47" y="159" width="14" height="14" transform="rotate(0,54,166)"/><rect x="47" y="173" width="14" height="14" transform="rotate(0,54,180)"/><rect x="47" y="187" width="14" height="14" transform="rotate(0,54,194)"/><rect x="47" y="201" width="14" height="14" transform="rotate(0,54,208)"/><rect x="47" y="215" width="14" height="14" transform="rotate(0,54,222)"/><rect x="47" y="229" width="14" height="14" transform="rotate(0,54,236)"/><path d="M 47 243v 14h 14v -7a 7 7, 0, 0, 0, -7 -7" transform="rotate(90,54,250)"/><path d="M 47 271v 14h 14v -7a 7 7, 0, 0, 0, -7 -7" transform="rotate(-90,54,278)"/><path d="M 47 285v 14h 14v -7a 7 7, 0, 0, 0, -7 -7" transform="rotate(180,54,292)"/><path d="M 61 145v 14h 14v -7a 7 7, 0, 0, 0, -7 -7" transform="rotate(-90,68,152)"/><path d="M 61 159v 14h 14v -7a 7 7, 0, 0, 0, -7 -7" transform="rotate(90,68,166)"/><rect x="61" y="271" width="14" height="14" transform="rotate(0,68,278)"/><path d="M 61 285v 14h 14v -7a 7 7, 0, 0, 0, -7 -7" transform="rotate(90,68,292)"/><circle cx="68" cy="320" r="7" transform="rotate(0,68,320)"/><circle cx="68" cy="362" r="7" transform="rotate(0,68,362)"/><rect x="75" y="145" width="14" height="14" transform="rotate(0,82,152)"/><path d="M 75 173v 14h 7a 7 7, 0, 0, 0, 0 -14" transform="rotate(180,82,180)"/><path d="M 75 201v 14h 7a 7 7, 0, 0, 0, 0 -14" transform="rotate(-90,82,208)"/><path d="M 75 215v 14h 14v -7a 7 7, 0, 0, 0, -7 -7" transform="rotate(180,82,222)"/><path d="M 75 243v 14h 7a 7 7, 0, 0, 0, 0 -14" transform="rotate(180,82,250)"/><rect x="75" y="271" width="14" height="14" transform="rotate(0,82,278)"/><path d="M 89 145v 14h 7a 7 7, 0, 0, 0, 0 -14" transform="rotate(0,96,152)"/><path d="M 89 173v 14h 7a 7 7, 0, 0, 0, 0 -14" transform="rotate(0,96,180)"/><rect x="89" y="215" width="14" height="14" transform="rotate(0,96,222)"/><rect x="89" y="229" width="14" height="14" transform="rotate(0,96,236)"/><rect x="89" y="243" width="14" height="14" transform="rotate(0,96,250)"/><rect x="89" y="257" width="14" height="14" transform="rotate(0,96,264)"/><rect x="89" y="271" width="14" height="14" transform="rotate(0,96,278)"/><path d="M 89 313v 14h 7a 7 7, 0, 0, 0, 0 -14" transform="rotate(-90,96,320)"/><path d="M 89 327v 14h 14v -7a 7 7, 0, 0, 0, -7 -7" transform="rotate(180,96,334)"/><path d="M 89 355v 14h 7a 7 7, 0, 0, 0, 0 -14" transform="rotate(180,96,362)"/><circle cx="110" cy="138" r="7" transform="rotate(0,110,138)"/><path d="M 103 159v 14h 7a 7 7, 0, 0, 0, 0 -14" transform="rotate(180,110,166)"/><path d="M 103 187v 14h 7a 7 7, 0, 0, 0, 0 -14" transform="rotate(180,110,194)"/><path d="M 103 215v 14h 7a 7 7, 0, 0, 0, 0 -14" transform="rotate(0,110,222)"/><rect x="103" y="243" width="14" height="14" transform="rotate(0,110,250)"/><path d="M 103 271v 14h 7a 7 7, 0, 0, 0, 0 -14" transform="rotate(0,110,278)"/><circle cx="110" cy="306" r="7" transform="rotate(0,110,306)"/><path d="M 103 327v 14h 7a 7 7, 0, 0, 0, 0 -14" transform="rotate(0,110,334)"/><path d="M 103 355v 14h 7a 7 7, 0, 0, 0, 0 -14" transform="rotate(0,110,362)"/><path d="M 117 159v 14h 7a 7 7, 0, 0, 0, 0 -14" transform="rotate(0,124,166)"/><rect x="117" y="187" width="14" height="14" transform="rotate(0,124,194)"/><rect x="117" y="243" width="14" height="14" transform="rotate(0,124,250)"/><path d="M 117 257v 14h 14v -7a 7 7, 0, 0, 0, -7 -7" transform="rotate(180,124,264)"/><circle cx="124" cy="292" r="7" transform="rotate(0,124,292)"/><path d="M 131 33v 14h 7a 7 7, 0, 0, 0, 0 -14" transform="rotate(-90,138,40)"/><rect x="131" y="47" width="14" height="14" transform="rotate(0,138,54)"/><path d="M 131 61v 14h 14v -7a 7 7, 0, 0, 0, -7 -7" transform="rotate(180,138,68)"/><path d="M 131 89v 14h 14v -7a 7 7, 0, 0, 0, -7 -7" transform="rotate(-90,138,96)"/><path d="M 131 103v 14h 7a 7 7, 0, 0, 0, 0 -14" transform="rotate(90,138,110)"/><circle cx="138" cy="152" r="7" transform="rotate(0,138,152)"/><path d="M 131 187v 14h 7a 7 7, 0, 0, 0, 0 -14" transform="rotate(0,138,194)"/><circle cx="138" cy="222" r="7" transform="rotate(0,138,222)"/><path d="M 131 243v 14h 14v -7a 7 7, 0, 0, 0, -7 -7" transform="rotate(0,138,250)"/><rect x="131" y="257" width="14" height="14" transform="rotate(0,138,264)"/><path d="M 131 271v 14h 14v -7a 7 7, 0, 0, 0, -7 -7" transform="rotate(180,138,278)"/><circle cx="138" cy="320" r="7" transform="rotate(0,138,320)"/><path d="M 131 341v 14h 7a 7 7, 0, 0, 0, 0 -14" transform="rotate(180,138,348)"/><path d="M 131 439v 14h 14v -7a 7 7, 0, 0, 0, -7 -7" transform="rotate(-90,138,446)"/><path d="M 131 453v 14h 14v -7a 7 7, 0, 0, 0, -7 -7" transform="rotate(180,138,460)"/><path d="M 145 61v 14h 7a 7 7, 0, 0, 0, 0 -14" transform="rotate(0,152,68)"/><rect x="145" y="89" width="14" height="14" transform="rotate(0,152,96)"/><circle cx="152" cy="124" r="7" transform="rotate(0,152,124)"/><path d="M 145 201v 14h 7a 7 7, 0, 0, 0, 0 -14" transform="rotate(180,152,208)"/><path d="M 145 257v 14h 14v -7a 7 7, 0, 0, 0, -7 -7" transform="rotate(0,152,264)"/><rect x="145" y="271" width="14" height="14" transform="rotate(0,152,278)"/><rect x="145" y="285" width="14" height="14" transform="rotate(0,152,292)"/><path d="M 145 299v 14h 14v -7a 7 7, 0, 0, 0, -7 -7" transform="rotate(180,152,306)"/><path d="M 145 327v 14h 14v -7a 7 7, 0, 0, 0, -7 -7" transform="rotate(-90,152,334)"/><rect x="145" y="341" width="14" height="14" transform="rotate(0,152,348)"/><path d="M 145 383v 14h 7a 7 7, 0, 0, 0, 0 -14" transform="rotate(-90,152,390)"/><path d="M 145 397v 14h 14v -7a 7 7, 0, 0, 0, -7 -7" transform="rotate(180,152,404)"/><path d="M 145 425v 14h 14v -7a 7 7, 0, 0, 0, -7 -7" transform="rotate(-90,152,432)"/><rect x="145" y="439" width="14" height="14" transform="rotate(0,152,446)"/><rect x="145" y="453" width="14" height="14" transform="rotate(0,152,460)"/><path d="M 145 467v 14h 14v -7a 7 7, 0, 0, 0, -7 -7" transform="rotate(180,152,474)"/><circle cx="166" cy="26" r="7" transform="rotate(0,166,26)"/><rect x="159" y="89" width="14" height="14" transform="rotate(0,166,96)"/><path d="M 159 103v 14h 7a 7 7, 0, 0, 0, 0 -14" transform="rotate(90,166,110)"/><circle cx="166" cy="138" r="7" transform="rotate(0,166,138)"/><path d="M 159 173v 14h 7a 7 7, 0, 0, 0, 0 -14" transform="rotate(-90,166,180)"/><rect x="159" y="187" width="14" height="14" transform="rotate(0,166,194)"/><rect x="159" y="201" width="14" height="14" transform="rotate(0,166,208)"/><path d="M 159 215v 14h 14v -7a 7 7, 0, 0, 0, -7 -7" transform="rotate(180,166,222)"/><path d="M 159 271v 14h 7a 7 7, 0, 0, 0, 0 -14" transform="rotate(0,166,278)"/><path d="M 159 299v 14h 14v -7a 7 7, 0, 0, 0, -7 -7" transform="rotate(0,166,306)"/><rect x="159" y="313" width="14" height="14" transform="rotate(0,166,320)"/><rect x="159" y="327" width="14" height="14" transform="rotate(0,166,334)"/><rect x="159" y="341" width="14" height="14" transform="rotate(0,166,348)"/><rect x="159" y="355" width="14" height="14" transform="rotate(0,166,362)"/><path d="M 159 369v 14h 14v -7a 7 7, 0, 0, 0, -7 -7" transform="rotate(180,166,376)"/><rect x="159" y="397" width="14" height="14" transform="rotate(0,166,404)"/><rect x="159" y="411" width="14" height="14" transform="rotate(0,166,418)"/><rect x="159" y="425" width="14" height="14" transform="rotate(0,166,432)"/><path d="M 159 453v 14h 14v -7a 7 7, 0, 0, 0, -7 -7" transform="rotate(0,166,460)"/><path d="M 159 467v 14h 14v -7a 7 7, 0, 0, 0, -7 -7" transform="rotate(90,166,474)"/><path d="M 173 47v 14h 14v -7a 7 7, 0, 0, 0, -7 -7" transform="rotate(-90,180,54)"/><path d="M 173 61v 14h 14v -7a 7 7, 0, 0, 0, -7 -7" transform="rotate(180,180,68)"/><rect x="173" y="89" width="14" height="14" transform="rotate(0,180,96)"/><path d="M 173 145v 14h 14v -7a 7 7, 0, 0, 0, -7 -7" transform="rotate(-90,180,152)"/><path d="M 173 159v 14h 7a 7 7, 0, 0, 0, 0 -14" transform="rotate(90,180,166)"/><rect x="173" y="215" width="14" height="14" transform="rotate(0,180,222)"/><path d="M 173 243v 14h 14v -7a 7 7, 0, 0, 0, -7 -7" transform="rotate(-90,180,250)"/><path d="M 173 257v 14h 7a 7 7, 0, 0, 0, 0 -14" transform="rotate(90,180,264)"/><rect x="173" y="313" width="14" height="14" transform="rotate(0,180,320)"/><rect x="173" y="327" width="14" height="14" transform="rotate(0,180,334)"/><rect x="173" y="355" width="14" height="14" transform="rotate(0,180,362)"/><rect x="173" y="369" width="14" height="14" transform="rotate(0,180,376)"/><rect x="173" y="383" width="14" height="14" transform="rotate(0,180,390)"/><rect x="173" y="397" width="14" height="14" transform="rotate(0,180,404)"/><rect x="173" y="425" width="14" height="14" transform="rotate(0,180,432)"/><path d="M 187 19v 14h 7a 7 7, 0, 0, 0, 0 -14" transform="rotate(-90,194,26)"/><rect x="187" y="33" width="14" height="14" transform="rotate(0,194,40)"/><rect x="187" y="47" width="14" height="14" transform="rotate(0,194,54)"/><rect x="187" y="61" width="14" height="14" transform="rotate(0,194,68)"/><rect x="187" y="75" width="14" height="14" transform="rotate(0,194,82)"/><rect x="187" y="89" width="14" height="14" transform="rotate(0,194,96)"/><rect x="187" y="103" width="14" height="14" transform="rotate(0,194,110)"/><path d="M 187 117v 14h 14v -7a 7 7, 0, 0, 0, -7 -7" transform="rotate(180,194,124)"/><rect x="187" y="145" width="14" height="14" transform="rotate(0,194,152)"/><path d="M 187 173v 14h 14v -7a 7 7, 0, 0, 0, -7 -7" transform="rotate(-90,194,180)"/><rect x="187" y="187" width="14" height="14" transform="rotate(0,194,194)"/><rect x="187" y="201" width="14" height="14" transform="rotate(0,194,208)"/><rect x="187" y="215" width="14" height="14" transform="rotate(0,194,222)"/><rect x="187" y="229" width="14" height="14" transform="rotate(0,194,236)"/><path d="M 187 243v 14h 14v -7a 7 7, 0, 0, 0, -7 -7" transform="rotate(90,194,250)"/><path d="M 187 299v 14h 14v -7a 7 7, 0, 0, 0, -7 -7" transform="rotate(-90,194,306)"/><rect x="187" y="313" width="14" height="14" transform="rotate(0,194,320)"/><rect x="187" y="327" width="14" height="14" transform="rotate(0,194,334)"/><rect x="187" y="341" width="14" height="14" transform="rotate(0,194,348)"/><rect x="187" y="355" width="14" height="14" transform="rotate(0,194,362)"/><path d="M 187 369v 14h 14v -7a 7 7, 0, 0, 0, -7 -7" transform="rotate(90,194,376)"/><path d="M 187 397v 14h 14v -7a 7 7, 0, 0, 0, -7 -7" transform="rotate(0,194,404)"/><rect x="187" y="411" width="14" height="14" transform="rotate(0,194,418)"/><rect x="187" y="425" width="14" height="14" transform="rotate(0,194,432)"/><path d="M 201 47v 14h 7a 7 7, 0, 0, 0, 0 -14" transform="rotate(0,208,54)"/><path d="M 201 75v 14h 14v -7a 7 7, 0, 0, 0, -7 -7" transform="rotate(0,208,82)"/><rect x="201" y="89" width="14" height="14" transform="rotate(0,208,96)"/><path d="M 201 117v 14h 14v -7a 7 7, 0, 0, 0, -7 -7" transform="rotate(0,208,124)"/><rect x="201" y="131" width="14" height="14" transform="rotate(0,208,138)"/><rect x="201" y="145" width="14" height="14" transform="rotate(0,208,152)"/><rect x="201" y="159" width="14" height="14" transform="rotate(0,208,166)"/><rect x="201" y="173" width="14" height="14" transform="rotate(0,208,180)"/><rect x="201" y="187" width="14" height="14" transform="rotate(0,208,194)"/><circle cx="208" cy="264" r="7" transform="rotate(0,208,264)"/><rect x="201" y="299" width="14" height="14" transform="rotate(0,208,306)"/><path d="M 201 313v 14h 14v -7a 7 7, 0, 0, 0, -7 -7" transform="rotate(90,208,320)"/><rect x="201" y="355" width="14" height="14" transform="rotate(0,208,362)"/><path d="M 201 425v 14h 7a 7 7, 0, 0, 0, 0 -14" transform="rotate(0,208,432)"/><circle cx="208" cy="460" r="7" transform="rotate(0,208,460)"/><path d="M 215 33v 14h 7a 7 7, 0, 0, 0, 0 -14" transform="rotate(180,222,40)"/><path d="M 215 61v 14h 7a 7 7, 0, 0, 0, 0 -14" transform="rotate(180,222,68)"/><rect x="215" y="89" width="14" height="14" transform="rotate(0,222,96)"/><path d="M 215 103v 14h 7a 7 7, 0, 0, 0, 0 -14" transform="rotate(90,222,110)"/><path d="M 215 159v 14h 14v -7a 7 7, 0, 0, 0, -7 -7" transform="rotate(0,222,166)"/><rect x="215" y="173" width="14" height="14" transform="rotate(0,222,180)"/><rect x="215" y="187" width="14" height="14" transform="rotate(0,222,194)"/><path d="M 215 201v 14h 14v -7a 7 7, 0, 0, 0, -7 -7" transform="rotate(180,222,208)"/><path d="M 215 229v 14h 7a 7 7, 0, 0, 0, 0 -14" transform="rotate(-90,222,236)"/><path d="M 215 243v 14h 14v -7a 7 7, 0, 0, 0, -7 -7" transform="rotate(180,222,250)"/><path d="M 215 285v 14h 7a 7 7, 0, 0, 0, 0 -14" transform="rotate(-90,222,292)"/><path d="M 215 299v 14h 14v -7a 7 7, 0, 0, 0, -7 -7" transform="rotate(90,222,306)"/><path d="M 215 327v 14h 7a 7 7, 0, 0, 0, 0 -14" transform="rotate(180,222,334)"/><path d="M 215 355v 14h 7a 7 7, 0, 0, 0, 0 -14" transform="rotate(0,222,362)"/><path d="M 215 383v 14h 14v -7a 7 7, 0, 0, 0, -7 -7" transform="rotate(-90,222,390)"/><path d="M 215 397v 14h 14v -7a 7 7, 0, 0, 0, -7 -7" transform="rotate(180,222,404)"/><path d="M 215 439v 14h 7a 7 7, 0, 0, 0, 0 -14" transform="rotate(180,222,446)"/><rect x="229" y="33" width="14" height="14" transform="rotate(0,236,40)"/><rect x="229" y="61" width="14" height="14" transform="rotate(0,236,68)"/><rect x="229" y="89" width="14" height="14" transform="rotate(0,236,96)"/><circle cx="236" cy="124" r="7" transform="rotate(0,236,124)"/><rect x="229" y="173" width="14" height="14" transform="rotate(0,236,180)"/><path d="M 229 201v 14h 7a 7 7, 0, 0, 0, 0 -14" transform="rotate(0,236,208)"/><rect x="229" y="243" width="14" height="14" transform="rotate(0,236,250)"/><path d="M 229 271v 14h 7a 7 7, 0, 0, 0, 0 -14" transform="rotate(180,236,278)"/><path d="M 229 313v 14h 14v -7a 7 7, 0, 0, 0, -7 -7" transform="rotate(-90,236,320)"/><rect x="229" y="327" width="14" height="14" transform="rotate(0,236,334)"/><path d="M 229 369v 14h 14v -7a 7 7, 0, 0, 0, -7 -7" transform="rotate(-90,236,376)"/><rect x="229" y="383" width="14" height="14" transform="rotate(0,236,390)"/><rect x="229" y="397" width="14" height="14" transform="rotate(0,236,404)"/><rect x="229" y="411" width="14" height="14" transform="rotate(0,236,418)"/><rect x="229" y="425" width="14" height="14" transform="rotate(0,236,432)"/><rect x="229" y="439" width="14" height="14" transform="rotate(0,236,446)"/><path d="M 243 19v 14h 7a 7 7, 0, 0, 0, 0 -14" transform="rotate(-90,250,26)"/><rect x="243" y="33" width="14" height="14" transform="rotate(0,250,40)"/><rect x="243" y="47" width="14" height="14" transform="rotate(0,250,54)"/><rect x="243" y="61" width="14" height="14" transform="rotate(0,250,68)"/><rect x="243" y="75" width="14" height="14" transform="rotate(0,250,82)"/><rect x="243" y="89" width="14" height="14" transform="rotate(0,250,96)"/><path d="M 243 103v 14h 7a 7 7, 0, 0, 0, 0 -14" transform="rotate(90,250,110)"/><path d="M 243 131v 14h 7a 7 7, 0, 0, 0, 0 -14" transform="rotate(-90,250,138)"/><path d="M 243 145v 14h 14v -7a 7 7, 0, 0, 0, -7 -7" transform="rotate(180,250,152)"/><path d="M 243 173v 14h 14v -7a 7 7, 0, 0, 0, -7 -7" transform="rotate(0,250,180)"/><path d="M 243 187v 14h 14v -7a 7 7, 0, 0, 0, -7 -7" transform="rotate(180,250,194)"/><circle cx="250" cy="222" r="7" transform="rotate(0,250,222)"/><path d="M 243 243v 14h 14v -7a 7 7, 0, 0, 0, -7 -7" transform="rotate(0,250,250)"/><rect x="243" y="257" width="14" height="14" transform="rotate(0,250,264)"/><path d="M 243 271v 14h 14v -7a 7 7, 0, 0, 0, -7 -7" transform="rotate(90,250,278)"/><path d="M 243 313v 14h 14v -7a 7 7, 0, 0, 0, -7 -7" transform="rotate(0,250,320)"/><rect x="243" y="327" width="14" height="14" transform="rotate(0,250,334)"/><path d="M 243 341v 14h 14v -7a 7 7, 0, 0, 0, -7 -7" transform="rotate(180,250,348)"/><path d="M 243 369v 14h 14v -7a 7 7, 0, 0, 0, -7 -7" transform="rotate(0,250,376)"/><rect x="243" y="383" width="14" height="14" transform="rotate(0,250,390)"/><rect x="243" y="411" width="14" height="14" transform="rotate(0,250,418)"/><path d="M 243 439v 14h 7a 7 7, 0, 0, 0, 0 -14" transform="rotate(0,250,446)"/><rect x="257" y="33" width="14" height="14" transform="rotate(0,264,40)"/><path d="M 257 47v 14h 14v -7a 7 7, 0, 0, 0, -7 -7" transform="rotate(90,264,54)"/><rect x="257" y="75" width="14" height="14" transform="rotate(0,264,82)"/><path d="M 257 145v 14h 14v -7a 7 7, 0, 0, 0, -7 -7" transform="rotate(0,264,152)"/><path d="M 257 159v 14h 7a 7 7, 0, 0, 0, 0 -14" transform="rotate(90,264,166)"/><rect x="257" y="187" width="14" height="14" transform="rotate(0,264,194)"/><path d="M 257 201v 14h 14v -7a 7 7, 0, 0, 0, -7 -7" transform="rotate(180,264,208)"/><path d="M 257 299v 14h 7a 7 7, 0, 0, 0, 0 -14" transform="rotate(180,264,306)"/><path d="M 257 341v 14h 14v -7a 7 7, 0, 0, 0, -7 -7" transform="rotate(0,264,348)"/><path d="M 257 355v 14h 7a 7 7, 0, 0, 0, 0 -14" transform="rotate(90,264,362)"/><path d="M 257 383v 14h 7a 7 7, 0, 0, 0, 0 -14" transform="rotate(0,264,390)"/><rect x="257" y="411" width="14" height="14" transform="rotate(0,264,418)"/><path d="M 257 425v 14h 7a 7 7, 0, 0, 0, 0 -14" transform="rotate(90,264,432)"/><path d="M 257 453v 14h 14v -7a 7 7, 0, 0, 0, -7 -7" transform="rotate(-90,264,460)"/><path d="M 257 467v 14h 7a 7 7, 0, 0, 0, 0 -14" transform="rotate(90,264,474)"/><rect x="271" y="33" width="14" height="14" transform="rotate(0,278,40)"/><path d="M 271 75v 14h 7a 7 7, 0, 0, 0, 0 -14" transform="rotate(0,278,82)"/><path d="M 271 103v 14h 7a 7 7, 0, 0, 0, 0 -14" transform="rotate(-90,278,110)"/><rect x="271" y="117" width="14" height="14" transform="rotate(0,278,124)"/><path d="M 271 131v 14h 7a 7 7, 0, 0, 0, 0 -14" transform="rotate(90,278,138)"/><path d="M 271 187v 14h 14v -7a 7 7, 0, 0, 0, -7 -7" transform="rotate(0,278,194)"/><rect x="271" y="201" width="14" height="14" transform="rotate(0,278,208)"/><rect x="271" y="215" width="14" height="14" transform="rotate(0,278,222)"/><path d="M 271 229v 14h 14v -7a 7 7, 0, 0, 0, -7 -7" transform="rotate(180,278,236)"/><circle cx="278" cy="278" r="7" transform="rotate(0,278,278)"/><path d="M 271 299v 14h 14v -7a 7 7, 0, 0, 0, -7 -7" transform="rotate(0,278,306)"/><path d="M 271 313v 14h 7a 7 7, 0, 0, 0, 0 -14" transform="rotate(90,278,320)"/><path d="M 271 397v 14h 7a 7 7, 0, 0, 0, 0 -14" transform="rotate(-90,278,404)"/><rect x="271" y="411" width="14" height="14" transform="rotate(0,278,418)"/><path d="M 271 439v 14h 7a 7 7, 0, 0, 0, 0 -14" transform="rotate(-90,278,446)"/><rect x="271" y="453" width="14" height="14" transform="rotate(0,278,460)"/><path d="M 285 33v 14h 14v -7a 7 7, 0, 0, 0, -7 -7" transform="rotate(0,292,40)"/><path d="M 285 47v 14h 14v -7a 7 7, 0, 0, 0, -7 -7" transform="rotate(180,292,54)"/><rect x="285" y="117" width="14" height="14" transform="rotate(0,292,124)"/><path d="M 285 145v 14h 14v -7a 7 7, 0, 0, 0, -7 -7" transform="rotate(-90,292,152)"/><path d="M 285 159v 14h 7a 7 7, 0, 0, 0, 0 -14" transform="rotate(90,292,166)"/><rect x="285" y="201" width="14" height="14" transform="rotate(0,292,208)"/><rect x="285" y="215" width="14" height="14" transform="rotate(0,292,222)"/><rect x="285" y="229" width="14" height="14" transform="rotate(0,292,236)"/><circle cx="292" cy="264" r="7" transform="rotate(0,292,264)"/><circle cx="292" cy="292" r="7" transform="rotate(0,292,292)"/><path d="M 285 327v 14h 14v -7a 7 7, 0, 0, 0, -7 -7" transform="rotate(-90,292,334)"/><path d="M 285 341v 14h 14v -7a 7 7, 0, 0, 0, -7 -7" transform="rotate(180,292,348)"/><circle cx="292" cy="376" r="7" transform="rotate(0,292,376)"/><path d="M 285 411v 14h 7a 7 7, 0, 0, 0, 0 -14" transform="rotate(0,292,418)"/><path d="M 285 453v 14h 7a 7 7, 0, 0, 0, 0 -14" transform="rotate(0,292,460)"/><rect x="299" y="47" width="14" height="14" transform="rotate(0,306,54)"/><path d="M 299 75v 14h 14v -7a 7 7, 0, 0, 0, -7 -7" transform="rotate(-90,306,82)"/><rect x="299" y="89" width="14" height="14" transform="rotate(0,306,96)"/><rect x="299" y="103" width="14" height="14" transform="rotate(0,306,110)"/><rect x="299" y="117" width="14" height="14" transform="rotate(0,306,124)"/><rect x="299" y="131" width="14" height="14" transform="rotate(0,306,138)"/><rect x="299" y="145" width="14" height="14" transform="rotate(0,306,152)"/><path d="M 299 201v 14h 14v -7a 7 7, 0, 0, 0, -7 -7" transform="rotate(0,306,208)"/><rect x="299" y="215" width="14" height="14" transform="rotate(0,306,222)"/><rect x="299" y="229" width="14" height="14" transform="rotate(0,306,236)"/><path d="M 299 243v 14h 14v -7a 7 7, 0, 0, 0, -7 -7" transform="rotate(180,306,250)"/><circle cx="306" cy="278" r="7" transform="rotate(0,306,278)"/><rect x="299" y="327" width="14" height="14" transform="rotate(0,306,334)"/><rect x="299" y="341" width="14" height="14" transform="rotate(0,306,348)"/><path d="M 299 355v 14h 7a 7 7, 0, 0, 0, 0 -14" transform="rotate(90,306,362)"/><path d="M 299 425v 14h 14v -7a 7 7, 0, 0, 0, -7 -7" transform="rotate(-90,306,432)"/><path d="M 299 439v 14h 14v -7a 7 7, 0, 0, 0, -7 -7" transform="rotate(180,306,446)"/><path d="M 313 19v 14h 7a 7 7, 0, 0, 0, 0 -14" transform="rotate(-90,320,26)"/><rect x="313" y="33" width="14" height="14" transform="rotate(0,320,40)"/><rect x="313" y="47" width="14" height="14" transform="rotate(0,320,54)"/><path d="M 313 75v 14h 14v -7a 7 7, 0, 0, 0, -7 -7" transform="rotate(0,320,82)"/><rect x="313" y="89" width="14" height="14" transform="rotate(0,320,96)"/><rect x="313" y="131" width="14" height="14" transform="rotate(0,320,138)"/><path d="M 313 145v 14h 14v -7a 7 7, 0, 0, 0, -7 -7" transform="rotate(90,320,152)"/><path d="M 313 173v 14h 7a 7 7, 0, 0, 0, 0 -14" transform="rotate(-90,320,180)"/><path d="M 313 187v 14h 14v -7a 7 7, 0, 0, 0, -7 -7" transform="rotate(180,320,194)"/><path d="M 313 215v 14h 7a 7 7, 0, 0, 0, 0 -14" transform="rotate(0,320,222)"/><path d="M 313 243v 14h 14v -7a 7 7, 0, 0, 0, -7 -7" transform="rotate(0,320,250)"/><path d="M 313 257v 14h 7a 7 7, 0, 0, 0, 0 -14" transform="rotate(90,320,264)"/><path d="M 313 299v 14h 14v -7a 7 7, 0, 0, 0, -7 -7" transform="rotate(-90,320,306)"/><rect x="313" y="313" width="14" height="14" transform="rotate(0,320,320)"/><rect x="313" y="327" width="14" height="14" transform="rotate(0,320,334)"/><rect x="313" y="341" width="14" height="14" transform="rotate(0,320,348)"/><path d="M 313 383v 14h 7a 7 7, 0, 0, 0, 0 -14" transform="rotate(180,320,390)"/><path d="M 313 425v 14h 14v -7a 7 7, 0, 0, 0, -7 -7" transform="rotate(0,320,432)"/><rect x="313" y="439" width="14" height="14" transform="rotate(0,320,446)"/><path d="M 313 467v 14h 7a 7 7, 0, 0, 0, 0 -14" transform="rotate(180,320,474)"/><path d="M 327 47v 14h 14v -7a 7 7, 0, 0, 0, -7 -7" transform="rotate(0,334,54)"/><path d="M 327 61v 14h 14v -7a 7 7, 0, 0, 0, -7 -7" transform="rotate(180,334,68)"/><rect x="327" y="89" width="14" height="14" transform="rotate(0,334,96)"/><rect x="327" y="103" width="14" height="14" transform="rotate(0,334,110)"/><rect x="327" y="117" width="14" height="14" transform="rotate(0,334,124)"/><path d="M 327 131v 14h 14v -7a 7 7, 0, 0, 0, -7 -7" transform="rotate(90,334,138)"/><path d="M 327 159v 14h 7a 7 7, 0, 0, 0, 0 -14" transform="rotate(180,334,166)"/><path d="M 327 187v 14h 14v -7a 7 7, 0, 0, 0, -7 -7" transform="rotate(0,334,194)"/><path d="M 327 201v 14h 14v -7a 7 7, 0, 0, 0, -7 -7" transform="rotate(180,334,208)"/><path d="M 327 285v 14h 7a 7 7, 0, 0, 0, 0 -14" transform="rotate(-90,334,292)"/><rect x="327" y="299" width="14" height="14" transform="rotate(0,334,306)"/><rect x="327" y="327" width="14" height="14" transform="rotate(0,334,334)"/><rect x="327" y="341" width="14" height="14" transform="rotate(0,334,348)"/><path d="M 327 383v 14h 14v -7a 7 7, 0, 0, 0, -7 -7" transform="rotate(0,334,390)"/><rect x="327" y="397" width="14" height="14" transform="rotate(0,334,404)"/><path d="M 327 411v 14h 14v -7a 7 7, 0, 0, 0, -7 -7" transform="rotate(180,334,418)"/><path d="M 327 439v 14h 14v -7a 7 7, 0, 0, 0, -7 -7" transform="rotate(0,334,446)"/><rect x="327" y="453" width="14" height="14" transform="rotate(0,334,460)"/><path d="M 327 467v 14h 14v -7a 7 7, 0, 0, 0, -7 -7" transform="rotate(90,334,474)"/><circle cx="348" cy="40" r="7" transform="rotate(0,348,40)"/><path d="M 341 61v 14h 7a 7 7, 0, 0, 0, 0 -14" transform="rotate(0,348,68)"/><rect x="341" y="89" width="14" height="14" transform="rotate(0,348,96)"/><path d="M 341 159v 14h 14v -7a 7 7, 0, 0, 0, -7 -7" transform="rotate(0,348,166)"/><path d="M 341 173v 14h 14v -7a 7 7, 0, 0, 0, -7 -7" transform="rotate(180,348,180)"/><rect x="341" y="201" width="14" height="14" transform="rotate(0,348,208)"/><path d="M 341 215v 14h 7a 7 7, 0, 0, 0, 0 -14" transform="rotate(90,348,222)"/><path d="M 341 257v 14h 7a 7 7, 0, 0, 0, 0 -14" transform="rotate(-90,348,264)"/><path d="M 341 271v 14h 7a 7 7, 0, 0, 0, 0 -14" transform="rotate(90,348,278)"/><path d="M 341 299v 14h 7a 7 7, 0, 0, 0, 0 -14" transform="rotate(0,348,306)"/><rect x="341" y="327" width="14" height="14" transform="rotate(0,348,334)"/><rect x="341" y="341" width="14" height="14" transform="rotate(0,348,348)"/><rect x="341" y="355" width="14" height="14" transform="rotate(0,348,362)"/><path d="M 341 369v 14h 14v -7a 7 7, 0, 0, 0, -7 -7" transform="rotate(180,348,376)"/><rect x="341" y="411" width="14" height="14" transform="rotate(0,348,418)"/><path d="M 341 425v 14h 7a 7 7, 0, 0, 0, 0 -14" transform="rotate(90,348,432)"/><circle cx="362" cy="26" r="7" transform="rotate(0,362,26)"/><circle cx="362" cy="54" r="7" transform="rotate(0,362,54)"/><path d="M 355 75v 14h 7a 7 7, 0, 0, 0, 0 -14" transform="rotate(-90,362,82)"/><rect x="355" y="89" width="14" height="14" transform="rotate(0,362,96)"/><rect x="355" y="103" width="14" height="14" transform="rotate(0,362,110)"/><rect x="355" y="117" width="14" height="14" transform="rotate(0,362,124)"/><path d="M 355 131v 14h 14v -7a 7 7, 0, 0, 0, -7 -7" transform="rotate(180,362,138)"/><rect x="355" y="173" width="14" height="14" transform="rotate(0,362,180)"/><rect x="355" y="187" width="14" height="14" transform="rotate(0,362,194)"/><path d="M 355 201v 14h 14v -7a 7 7, 0, 0, 0, -7 -7" transform="rotate(90,362,208)"/><path d="M 355 229v 14h 7a 7 7, 0, 0, 0, 0 -14" transform="rotate(180,362,236)"/><path d="M 355 285v 14h 7a 7 7, 0, 0, 0, 0 -14" transform="rotate(180,362,292)"/><rect x="355" y="327" width="14" height="14" transform="rotate(0,362,334)"/><rect x="355" y="341" width="14" height="14" transform="rotate(0,362,348)"/><rect x="355" y="355" width="14" height="14" transform="rotate(0,362,362)"/><rect x="355" y="369" width="14" height="14" transform="rotate(0,362,376)"/><rect x="355" y="383" width="14" height="14" transform="rotate(0,362,390)"/><rect x="355" y="397" width="14" height="14" transform="rotate(0,362,404)"/><rect x="355" y="411" width="14" height="14" transform="rotate(0,362,418)"/><path d="M 355 453v 14h 7a 7 7, 0, 0, 0, 0 -14" transform="rotate(180,362,460)"/><path d="M 369 131v 14h 14v -7a 7 7, 0, 0, 0, -7 -7" transform="rotate(0,376,138)"/><rect x="369" y="145" width="14" height="14" transform="rotate(0,376,152)"/><rect x="369" y="159" width="14" height="14" transform="rotate(0,376,166)"/><rect x="369" y="173" width="14" height="14" transform="rotate(0,376,180)"/><path d="M 369 229v 14h 7a 7 7, 0, 0, 0, 0 -14" transform="rotate(0,376,236)"/><rect x="369" y="285" width="14" height="14" transform="rotate(0,376,292)"/><path d="M 369 313v 14h 14v -7a 7 7, 0, 0, 0, -7 -7" transform="rotate(-90,376,320)"/><rect x="369" y="327" width="14" height="14" transform="rotate(0,376,334)"/><rect x="369" y="341" width="14" height="14" transform="rotate(0,376,348)"/><rect x="369" y="355" width="14" height="14" transform="rotate(0,376,362)"/><rect x="369" y="411" width="14" height="14" transform="rotate(0,376,418)"/><path d="M 369 425v 14h 7a 7 7, 0, 0, 0, 0 -14" transform="rotate(90,376,432)"/><path d="M 369 453v 14h 7a 7 7, 0, 0, 0, 0 -14" transform="rotate(0,376,460)"/><path d="M 383 159v 14h 14v -7a 7 7, 0, 0, 0, -7 -7" transform="rotate(0,390,166)"/><path d="M 383 173v 14h 14v -7a 7 7, 0, 0, 0, -7 -7" transform="rotate(90,390,180)"/><path d="M 383 201v 14h 7a 7 7, 0, 0, 0, 0 -14" transform="rotate(180,390,208)"/><circle cx="390" cy="264" r="7" transform="rotate(0,390,264)"/><path d="M 383 285v 14h 7a 7 7, 0, 0, 0, 0 -14" transform="rotate(0,390,292)"/><path d="M 383 313v 14h 7a 7 7, 0, 0, 0, 0 -14" transform="rotate(0,390,320)"/><rect x="383" y="341" width="14" height="14" transform="rotate(0,390,348)"/><rect x="383" y="355" width="14" height="14" transform="rotate(0,390,362)"/><circle cx="390" cy="390" r="7" transform="rotate(0,390,390)"/><rect x="383" y="411" width="14" height="14" transform="rotate(0,390,418)"/><circle cx="404" cy="138" r="7" transform="rotate(0,404,138)"/><path d="M 397 187v 14h 7a 7 7, 0, 0, 0, 0 -14" transform="rotate(-90,404,194)"/><rect x="397" y="201" width="14" height="14" transform="rotate(0,404,208)"/><path d="M 397 229v 14h 7a 7 7, 0, 0, 0, 0 -14" transform="rotate(180,404,236)"/><circle cx="404" cy="306" r="7" transform="rotate(0,404,306)"/><rect x="397" y="341" width="14" height="14" transform="rotate(0,404,348)"/><rect x="397" y="355" width="14" height="14" transform="rotate(0,404,362)"/><rect x="397" y="411" width="14" height="14" transform="rotate(0,404,418)"/><rect x="397" y="425" width="14" height="14" transform="rotate(0,404,432)"/><rect x="397" y="439" width="14" height="14" transform="rotate(0,404,446)"/><rect x="397" y="453" width="14" height="14" transform="rotate(0,404,460)"/><path d="M 397 467v 14h 14v -7a 7 7, 0, 0, 0, -7 -7" transform="rotate(180,404,474)"/><path d="M 411 145v 14h 14v -7a 7 7, 0, 0, 0, -7 -7" transform="rotate(-90,418,152)"/><path d="M 411 159v 14h 14v -7a 7 7, 0, 0, 0, -7 -7" transform="rotate(180,418,166)"/><path d="M 411 201v 14h 7a 7 7, 0, 0, 0, 0 -14" transform="rotate(0,418,208)"/><path d="M 411 229v 14h 14v -7a 7 7, 0, 0, 0, -7 -7" transform="rotate(0,418,236)"/><path d="M 411 243v 14h 14v -7a 7 7, 0, 0, 0, -7 -7" transform="rotate(180,418,250)"/><path d="M 411 271v 14h 7a 7 7, 0, 0, 0, 0 -14" transform="rotate(180,418,278)"/><path d="M 411 327v 14h 14v -7a 7 7, 0, 0, 0, -7 -7" transform="rotate(-90,418,334)"/><rect x="411" y="341" width="14" height="14" transform="rotate(0,418,348)"/><rect x="411" y="355" width="14" height="14" transform="rotate(0,418,362)"/><rect x="411" y="369" width="14" height="14" transform="rotate(0,418,376)"/><rect x="411" y="383" width="14" height="14" transform="rotate(0,418,390)"/><rect x="411" y="397" width="14" height="14" transform="rotate(0,418,404)"/><path d="M 411 411v 14h 14v -7a 7 7, 0, 0, 0, -7 -7" transform="rotate(90,418,418)"/><rect x="411" y="439" width="14" height="14" transform="rotate(0,418,446)"/><rect x="411" y="453" width="14" height="14" transform="rotate(0,418,460)"/><rect x="411" y="467" width="14" height="14" transform="rotate(0,418,474)"/><path d="M 425 131v 14h 14v -7a 7 7, 0, 0, 0, -7 -7" transform="rotate(-90,432,138)"/><rect x="425" y="145" width="14" height="14" transform="rotate(0,432,152)"/><path d="M 425 159v 14h 14v -7a 7 7, 0, 0, 0, -7 -7" transform="rotate(90,432,166)"/><path d="M 425 187v 14h 7a 7 7, 0, 0, 0, 0 -14" transform="rotate(180,432,194)"/><circle cx="432" cy="222" r="7" transform="rotate(0,432,222)"/><path d="M 425 243v 14h 7a 7 7, 0, 0, 0, 0 -14" transform="rotate(0,432,250)"/><rect x="425" y="271" width="14" height="14" transform="rotate(0,432,278)"/><path d="M 425 285v 14h 7a 7 7, 0, 0, 0, 0 -14" transform="rotate(90,432,292)"/><rect x="425" y="327" width="14" height="14" transform="rotate(0,432,334)"/><rect x="425" y="355" width="14" height="14" transform="rotate(0,432,362)"/><rect x="425" y="397" width="14" height="14" transform="rotate(0,432,404)"/><rect x="425" y="439" width="14" height="14" transform="rotate(0,432,446)"/><rect x="425" y="453" width="14" height="14" transform="rotate(0,432,460)"/><path d="M 425 467v 14h 14v -7a 7 7, 0, 0, 0, -7 -7" transform="rotate(90,432,474)"/><rect x="439" y="131" width="14" height="14" transform="rotate(0,446,138)"/><path d="M 439 173v 14h 7a 7 7, 0, 0, 0, 0 -14" transform="rotate(-90,446,180)"/><path d="M 439 187v 14h 14v -7a 7 7, 0, 0, 0, -7 -7" transform="rotate(90,446,194)"/><path d="M 439 229v 14h 7a 7 7, 0, 0, 0, 0 -14" transform="rotate(180,446,236)"/><path d="M 439 271v 14h 7a 7 7, 0, 0, 0, 0 -14" transform="rotate(0,446,278)"/><path d="M 439 299v 14h 14v -7a 7 7, 0, 0, 0, -7 -7" transform="rotate(-90,446,306)"/><rect x="439" y="313" width="14" height="14" transform="rotate(0,446,320)"/><rect x="439" y="327" width="14" height="14" transform="rotate(0,446,334)"/><rect x="439" y="355" width="14" height="14" transform="rotate(0,446,362)"/><rect x="439" y="369" width="14" height="14" transform="rotate(0,446,376)"/><rect x="439" y="383" width="14" height="14" transform="rotate(0,446,390)"/><rect x="439" y="397" width="14" height="14" transform="rotate(0,446,404)"/><path d="M 439 425v 14h 7a 7 7, 0, 0, 0, 0 -14" transform="rotate(-90,446,432)"/><path d="M 439 439v 14h 14v -7a 7 7, 0, 0, 0, -7 -7" transform="rotate(90,446,446)"/><path d="M 453 131v 14h 14v -7a 7 7, 0, 0, 0, -7 -7" transform="rotate(0,460,138)"/><path d="M 453 145v 14h 7a 7 7, 0, 0, 0, 0 -14" transform="rotate(90,460,152)"/><path d="M 453 201v 14h 7a 7 7, 0, 0, 0, 0 -14" transform="rotate(-90,460,208)"/><rect x="453" y="215" width="14" height="14" transform="rotate(0,460,222)"/><path d="M 453 229v 14h 14v -7a 7 7, 0, 0, 0, -7 -7" transform="rotate(90,460,236)"/><rect x="453" y="299" width="14" height="14" transform="rotate(0,460,306)"/><path d="M 453 327v 14h 14v -7a 7 7, 0, 0, 0, -7 -7" transform="rotate(0,460,334)"/><rect x="453" y="341" width="14" height="14" transform="rotate(0,460,348)"/><rect x="453" y="355" width="14" height="14" transform="rotate(0,460,362)"/><path d="M 453 369v 14h 14v -7a 7 7, 0, 0, 0, -7 -7" transform="rotate(90,460,376)"/><path d="M 453 397v 14h 14v -7a 7 7, 0, 0, 0, -7 -7" transform="rotate(0,460,404)"/><path d="M 453 411v 14h 14v -7a 7 7, 0, 0, 0, -7 -7" transform="rotate(180,460,418)"/><circle cx="460" cy="474" r="7" transform="rotate(0,460,474)"/><circle cx="474" cy="180" r="7" transform="rotate(0,474,180)"/><path d="M 467 243v 14h 7a 7 7, 0, 0, 0, 0 -14" transform="rotate(-90,474,250)"/><path d="M 467 257v 14h 7a 7 7, 0, 0, 0, 0 -14" transform="rotate(90,474,264)"/><path d="M 467 285v 14h 7a 7 7, 0, 0, 0, 0 -14" transform="rotate(-90,474,292)"/><rect x="467" y="299" width="14" height="14" transform="rotate(0,474,306)"/><path d="M 467 313v 14h 7a 7 7, 0, 0, 0, 0 -14" transform="rotate(90,474,320)"/><circle cx="474" cy="390" r="7" transform="rotate(0,474,390)"/><path d="M 467 411v 14h 7a 7 7, 0, 0, 0, 0 -14" transform="rotate(0,474,418)"/><circle cx="474" cy="446" r="7" transform="rotate(0,474,446)"/></clipPath><clipPath id="clip-path-corners-square-color-0-0"><path clip-rule="evenodd" d="M 19 54v 28a 35 35, 0, 0, 0, 35 35h 28a 35 35, 0, 0, 0, 35 -35v -28a 35 35, 0, 0, 0, -35 -35h -28a 35 35, 0, 0, 0, -35 35M 54 33h 28a 21 21, 0, 0, 1, 21 21v 28a 21 21, 0, 0, 1, -21 21h -28a 21 21, 0, 0, 1, -21 -21v -28a 21 21, 0, 0, 1, 21 -21" transform="rotate(0,68,68)"/></clipPath><clipPath id="clip-path-corners-dot-color-0-0"><circle cx="68" cy="68" r="21" transform="rotate(0,68,68)"/></clipPath><clipPath id="clip-path-corners-square-color-1-0"><path clip-rule="evenodd" d="M 383 54v 28a 35 35, 0, 0, 0, 35 35h 28a 35 35, 0, 0, 0, 35 -35v -28a 35 35, 0, 0, 0, -35 -35h -28a 35 35, 0, 0, 0, -35 35M 418 33h 28a 21 21, 0, 0, 1, 21 21v 28a 21 21, 0, 0, 1, -21 21h -28a 21 21, 0, 0, 1, -21 -21v -28a 21 21, 0, 0, 1, 21 -21" transform="rotate(90,432,68)"/></clipPath><clipPath id="clip-path-corners-dot-color-1-0"><circle cx="432" cy="68" r="21" transform="rotate(90,432,68)"/></clipPath><clipPath id="clip-path-corners-square-color-0-1"><path clip-rule="evenodd" d="M 19 418v 28a 35 35, 0, 0, 0, 35 35h 28a 35 35, 0, 0, 0, 35 -35v -28a 35 35, 0, 0, 0, -35 -35h -28a 35 35, 0, 0, 0, -35 35M 54 397h 28a 21 21, 0, 0, 1, 21 21v 28a 21 21, 0, 0, 1, -21 21h -28a 21 21, 0, 0, 1, -21 -21v -28a 21 21, 0, 0, 1, 21 -21" transform="rotate(-90,68,432)"/></clipPath><clipPath id="clip-path-corners-dot-color-0-1"><circle cx="68" cy="432" r="21" transform="rotate(-90,68,432)"/></clipPath></defs><rect x="0" y="0" height="500" width="500" clip-path="url('#clip-path-background-color')" fill="#fff"/><rect x="0" y="0" height="500" width="500" clip-path="url('#clip-path-dot-color')" fill="#000000"/><rect x="19" y="19" height="98" width="98" clip-path="url('#clip-path-corners-square-color-0-0')" fill="#000000"/><rect x="47" y="47" height="42" width="42" clip-path="url('#clip-path-corners-dot-color-0-0')" fill="#000000"/><rect x="383" y="19" height="98" width="98" clip-path="url('#clip-path-corners-square-color-1-0')" fill="#000000"/><rect x="411" y="47" height="42" width="42" clip-path="url('#clip-path-corners-dot-color-1-0')" fill="#000000"/><rect x="19" y="383" height="98" width="98" clip-path="url('#clip-path-corners-square-color-0-1')" fill="#000000"/><rect x="47" y="411" height="42" width="42" clip-path="url('#clip-path-corners-dot-color-0-1')" fill="#000000"/></svg>